<?xml version="1.0" encoding="UTF-8" standalone="no"?> <svg xmlns:dc="http://purl.org/dc/elements/1.1/" xmlns:cc="http://creativecommons.org/ns#" xmlns:rdf="http://www.w3.org/1999/02/22-rdf-syntax-ns#" xmlns:svg="http://www.w3.org/2000/svg" xmlns="http://www.w3.org/2000/svg" xmlns:sodipodi="http://sodipodi.sourceforge.net/DTD/sodipodi-0.dtd" xmlns:inkscape="http://www.inkscape.org/namespaces/inkscape" viewBox="0 0 42 42" class="svg-icon svg-fill" data-name="nw__006-G40px" style="width: 100%; height: 100%;" id="svg880" sodipodi:docname="camera_new.svg" inkscape:version="0.92.4 (5da689c313, 2019-01-14)"> <metadata id="metadata886"></metadata> <defs id="defs884"></defs> <g transform="translate(1 1)" id="g878" fill-rule="evenodd" fill="none"> <circle cx="20" cy="20" r="20" id="circle866" stroke="#E3E8EC" style="stroke:none;fill:#ececec;fill-opacity:1"></circle> <g transform="translate(4 4)" id="g876"> <path d="M20.99 5v16L11 20.99 11.01 5h9.98zm0-1H11c-.55 0-1 .45-1 1.01V21c0 .56.45 1.01 1.01 1.01H21c.56 0 1.01-.45 1.01-1.01V5.01C22 4.45 21.55 4 20.99 4zM21 26l.01 1-10.01.01-.01-1.01H21zm.01-1H10.99c-.54 0-.99.45-.99.99V27c0 .55.45.99.99.99H21c.55 0 .99-.45.99-.99v-1.01a.984.984 0 00-.98-.99z" id="path868" fill-rule="nonzero" fill="#101828" style="fill:#878787;fill-opacity:1"></path> <path d="M18 22v3h-4v-3h4zm1-1h-6v5h6v-5zM16 8c1.1 0 2 .9 2 2s-.9 2-2 2-2-.9-2-2 .9-2 2-2zm0-1c-1.66 0-3 1.34-3 3s1.34 3 3 3 3-1.34 3-3-1.34-3-3-3z" id="path870" fill-rule="nonzero" fill="#101828" style="fill:#878787;fill-opacity:1"></path> <circle cx="16" cy="17" r="1" id="circle872" fill-rule="nonzero" fill="#101828" style="fill:#878787;fill-opacity:1"></circle> <path d="M0 0h32v32H0z" id="path874"></path> </g> </g> </svg> 