<?xml version="1.0" encoding="UTF-8"?> <svg xmlns="http://www.w3.org/2000/svg" xmlns:xlink="http://www.w3.org/1999/xlink" width="79px" height="79px" viewBox="0 0 79 79"> <!-- Generator: Sketch 52.4 (67378) - http://www.bohemiancoding.com/sketch --> <title>DSGN-699_MVNO-v-podarok_1 Copy</title> <desc>Created with Sketch.</desc> <defs> <linearGradient x1="100%" y1="0%" x2="0%" y2="100%" id="linearGradient-1"> <stop stop-color="#F97E7E" offset="0%"></stop> <stop stop-color="#F14871" offset="100%"></stop> </linearGradient> </defs> <g id="icons" stroke="none" stroke-width="1" fill="none" fill-rule="evenodd"> <g id="icons_DSGN-1159-Copy" transform="translate(-1862.000000, -1132.000000)"> <g id="DSGN-699_MVNO-v-podarok_1-Copy" transform="translate(1862.000000, 1132.000000)"> <path d="M78.9251429,39.3424286 C78.9251429,61.0395714 61.3351429,78.6281429 39.6394286,78.6281429 C17.9422857,78.6281429 0.353714286,61.0395714 0.353714286,39.3424286 C0.353714286,17.6452857 17.9422857,0.0567142857 39.6394286,0.0567142857 C61.3351429,0.0567142857 78.9251429,17.6452857 78.9251429,39.3424286" id="Fill-75" fill="url(#linearGradient-1)"></path> <g id="Group-21-Copy-2" transform="translate(17.142857, 19.000000)" fill="#FFFFFF" fill-rule="nonzero"> <path d="M0.908730159,17.2138651 L0.908730159,34.0142857 C0.908730159,35.6412326 2.31729752,37.0357143 3.96825397,37.0357143 L38.8888889,37.0357143 C40.5398453,37.0357143 41.9484127,35.6412326 41.9484127,34.0142857 L41.9484127,12.0142857 C41.9484127,10.3192943 40.6226673,8.96820378 39.047619,8.83571429 L9.97599295,8.83571429 L0.908730159,17.2138651 Z M43.4484127,12.0142857 L43.4484127,34.0142857 C43.4484127,36.4730531 41.3649166,38.5357143 38.8888889,38.5357143 L3.96825397,38.5357143 C1.49222629,38.5357143 -0.591269841,36.4730531 -0.591269841,34.0142857 L-0.591269841,16.8857143 C-0.591269841,16.6765207 -0.503899826,16.4768336 -0.3502544,16.3348652 L9.17355512,7.5348652 C9.31212781,7.40682403 9.49386819,7.33571429 9.68253968,7.33571429 L39.1092845,7.33825367 C41.5041523,7.53583027 43.4484127,9.51726031 43.4484127,12.0142857 Z" id="Shape"></path> <path d="M36.0079365,17.3571429 C36.0079365,15.5915592 34.6456112,14.2428571 32.8571429,14.2428571 L19.3650794,14.2428571 C17.6336583,14.2428571 16.2142857,15.6906171 16.2142857,17.3571429 L16.2142857,28.6714286 C16.2142857,30.3804298 17.6767795,31.7857143 19.3650794,31.7857143 L32.8571429,31.7857143 C34.588564,31.7857143 36.0079365,30.3379543 36.0079365,28.6714286 L36.0079365,17.3571429 Z M37.0079365,17.3571429 L37.0079365,28.6714286 C37.0079365,30.8858552 35.1453296,32.7857143 32.8571429,32.7857143 L19.3650794,32.7857143 C17.1332253,32.7857143 15.2142857,30.9418391 15.2142857,28.6714286 L15.2142857,17.3571429 C15.2142857,15.1427162 17.0768926,13.2428571 19.3650794,13.2428571 L32.8571429,13.2428571 C35.1956587,13.2428571 37.0079365,15.0370122 37.0079365,17.3571429 Z" id="Shape"></path> <path d="M20.4044315,5.90148302 C19.36491,4.48312716 18.0429821,3.65714286 16.37661,3.65714286 C14.6660668,3.65714286 13.6717897,4.4711167 13.6572898,5.4405359 C13.6428868,6.40347614 14.6079061,7.2 16.37661,7.2 L21.1855399,7.2 C20.9674509,6.75491348 20.7074307,6.31490467 20.4044315,5.90148302 Z M16.37661,2.05714286 C18.6140841,2.05714286 20.3786947,3.15972998 21.6949424,4.95565983 C22.1437739,5.56805961 22.5084385,6.2199429 22.7977563,6.87195277 C22.9728623,7.26657378 23.0857718,7.57924615 23.1430511,7.77072275 C23.2965603,8.28388198 22.9122381,8.8 22.37661,8.8 L20.9919947,8.8 L16.37661,8.8 C13.7799293,8.8 12.0284852,7.35436358 12.0574687,5.41660695 C12.0861189,3.50113832 13.8499738,2.05714286 16.37661,2.05714286 Z" id="Shape"></path> <path d="M28.8571429,2.05714286 C31.3240163,2.05714286 33.0417582,3.51701557 33.0417582,5.42857143 C33.0417582,7.363148 31.293793,8.8 28.7032967,8.8 L22.8571429,8.8 C22.3215148,8.8 21.9371926,8.28388198 22.0907018,7.77072275 C22.1479811,7.57924615 22.2608906,7.26657378 22.4359966,6.87195277 C22.7253144,6.2199429 23.089979,5.56805961 23.5388105,4.95565983 C24.8550582,3.15972998 26.6196688,2.05714286 28.8571429,2.05714286 Z M28.7032967,7.2 C30.4717748,7.2 31.4417582,6.40265997 31.4417582,5.42857143 C31.4417582,4.46361397 30.4928335,3.65714286 28.8571429,3.65714286 C27.1907708,3.65714286 25.8688429,4.48312716 24.8293214,5.90148302 C24.5263222,6.31490467 24.266302,6.75491348 24.0482116,7.2 L28.7032967,7.2 Z" id="Shape"></path> <path d="M22.1071429,0.714285714 C22.1071429,0.300072152 22.4429293,-0.0357142857 22.8571429,-0.0357142857 C23.2713564,-0.0357142857 23.6071429,0.300072152 23.6071429,0.714285714 L23.6071429,38.5714286 C23.6071429,38.9856421 23.2713564,39.3214286 22.8571429,39.3214286 C22.4429293,39.3214286 22.1071429,38.9856421 22.1071429,38.5714286 L22.1071429,0.714285714 Z" id="Shape"></path> </g> </g> </g> </g> </svg> 